G04 MADE WITH FRITZING*
G04 WWW.FRITZING.ORG*
G04 DOUBLE SIDED*
G04 HOLES PLATED*
G04 CONTOUR ON CENTER OF CONTOUR VECTOR*
%ASAXBY*%
%FSLAX23Y23*%
%MOIN*%
%OFA0B0*%
%SFA1.0B1.0*%
%ADD10C,0.085000*%
%ADD11C,0.088000*%
%ADD12C,0.049370*%
%ADD13C,0.096614*%
%ADD14R,0.085000X0.085000*%
%ADD15R,0.088000X0.088000*%
%LNMASK1*%
G90*
G70*
G54D10*
X1271Y553D03*
X1271Y153D03*
X371Y153D03*
X371Y553D03*
X971Y653D03*
X971Y353D03*
X871Y653D03*
X871Y353D03*
X771Y653D03*
X771Y353D03*
X671Y653D03*
X671Y353D03*
X171Y553D03*
X171Y253D03*
X1471Y553D03*
X1471Y253D03*
G54D11*
X571Y153D03*
X671Y153D03*
X1071Y153D03*
X971Y153D03*
G54D12*
X1130Y239D03*
G54D10*
X1271Y1453D03*
X1271Y1053D03*
X371Y1053D03*
X371Y1453D03*
X971Y1553D03*
X971Y1253D03*
X871Y1553D03*
X871Y1253D03*
X771Y1553D03*
X771Y1253D03*
X671Y1553D03*
X671Y1253D03*
X171Y1453D03*
X171Y1153D03*
X1471Y1453D03*
X1471Y1153D03*
G54D11*
X571Y1053D03*
X671Y1053D03*
X1071Y1053D03*
X971Y1053D03*
G54D12*
X1130Y1139D03*
G54D10*
X1271Y2353D03*
X1271Y1953D03*
X371Y1953D03*
X371Y2353D03*
X971Y2453D03*
X971Y2153D03*
X871Y2453D03*
X871Y2153D03*
X771Y2453D03*
X771Y2153D03*
X671Y2453D03*
X671Y2153D03*
X171Y2353D03*
X171Y2053D03*
X1471Y2353D03*
X1471Y2053D03*
G54D11*
X571Y1953D03*
X671Y1953D03*
X1071Y1953D03*
X971Y1953D03*
G54D12*
X1130Y2039D03*
G54D10*
X1271Y3253D03*
X1271Y2853D03*
X371Y2853D03*
X371Y3253D03*
X971Y3353D03*
X971Y3053D03*
X871Y3353D03*
X871Y3053D03*
X771Y3353D03*
X771Y3053D03*
X671Y3353D03*
X671Y3053D03*
X171Y3253D03*
X171Y2953D03*
X1471Y3253D03*
X1471Y2953D03*
G54D11*
X571Y2853D03*
X671Y2853D03*
X1071Y2853D03*
X971Y2853D03*
G54D12*
X1130Y2939D03*
G54D10*
X2971Y2353D03*
X2971Y1953D03*
X2971Y553D03*
X2971Y153D03*
X2971Y3253D03*
X2971Y2853D03*
X2971Y1453D03*
X2971Y1053D03*
X2071Y2853D03*
X2071Y3253D03*
X2071Y1953D03*
X2071Y2353D03*
X2071Y153D03*
X2071Y553D03*
X2071Y1053D03*
X2071Y1453D03*
X2671Y1553D03*
X2671Y1253D03*
X2571Y1553D03*
X2571Y1253D03*
X2471Y1553D03*
X2471Y1253D03*
X2371Y1553D03*
X2371Y1253D03*
X2671Y2453D03*
X2671Y2153D03*
X2571Y2453D03*
X2571Y2153D03*
X2471Y2453D03*
X2471Y2153D03*
X2371Y2453D03*
X2371Y2153D03*
X2671Y653D03*
X2671Y353D03*
X2571Y653D03*
X2571Y353D03*
X2471Y653D03*
X2471Y353D03*
X2371Y653D03*
X2371Y353D03*
X2671Y3353D03*
X2671Y3053D03*
X2571Y3353D03*
X2571Y3053D03*
X2471Y3353D03*
X2471Y3053D03*
X2371Y3353D03*
X2371Y3053D03*
X1871Y553D03*
X1871Y253D03*
X1871Y1453D03*
X1871Y1153D03*
X1871Y2353D03*
X1871Y2053D03*
X1871Y3253D03*
X1871Y2953D03*
X3171Y3253D03*
X3171Y2953D03*
X3171Y1453D03*
X3171Y1153D03*
X3171Y2353D03*
X3171Y2053D03*
X3171Y553D03*
X3171Y253D03*
G54D11*
X2271Y2853D03*
X2371Y2853D03*
X2271Y1053D03*
X2371Y1053D03*
X2271Y153D03*
X2371Y153D03*
X2271Y1953D03*
X2371Y1953D03*
X2771Y2853D03*
X2671Y2853D03*
X2771Y153D03*
X2671Y153D03*
X2771Y1053D03*
X2671Y1053D03*
X2771Y1953D03*
X2671Y1953D03*
G54D12*
X2830Y1139D03*
X2830Y2939D03*
X2830Y239D03*
X2830Y2039D03*
G54D13*
X3271Y2653D03*
X3171Y2653D03*
X3071Y2653D03*
X2971Y2653D03*
X2871Y2653D03*
X2771Y2653D03*
X2671Y2653D03*
X2571Y2653D03*
X2471Y2653D03*
X2371Y2653D03*
X2271Y2653D03*
X2171Y2653D03*
X2071Y2653D03*
X1971Y2653D03*
X1871Y2653D03*
X1771Y2653D03*
X1671Y2653D03*
X1571Y2653D03*
X1471Y2653D03*
X1371Y2653D03*
X1271Y2653D03*
X1171Y2653D03*
X1071Y2653D03*
X971Y2653D03*
X871Y2653D03*
X771Y2653D03*
X671Y2653D03*
X571Y2653D03*
X471Y2653D03*
X371Y2653D03*
X271Y2653D03*
X171Y2653D03*
X71Y2653D03*
X1571Y1753D03*
X3271Y1753D03*
X1471Y1753D03*
X3171Y1753D03*
X1371Y1753D03*
X3071Y1753D03*
X1271Y1753D03*
X2971Y1753D03*
X1171Y1753D03*
X2871Y1753D03*
X2771Y1753D03*
X1071Y1753D03*
X971Y1753D03*
X2671Y1753D03*
X2571Y1753D03*
X871Y1753D03*
X2471Y1753D03*
X771Y1753D03*
X671Y1753D03*
X2371Y1753D03*
X571Y1753D03*
X2271Y1753D03*
X471Y1753D03*
X2171Y1753D03*
X371Y1753D03*
X2071Y1753D03*
X1971Y1753D03*
X271Y1753D03*
X171Y1753D03*
X1871Y1753D03*
X1771Y1753D03*
X71Y1753D03*
X1671Y1753D03*
X1571Y853D03*
X3271Y853D03*
X1471Y853D03*
X3171Y853D03*
X1371Y853D03*
X3071Y853D03*
X1271Y853D03*
X2971Y853D03*
X1171Y853D03*
X2871Y853D03*
X2771Y853D03*
X1071Y853D03*
X971Y853D03*
X2671Y853D03*
X2571Y853D03*
X871Y853D03*
X2471Y853D03*
X771Y853D03*
X671Y853D03*
X2371Y853D03*
X571Y853D03*
X2271Y853D03*
X471Y853D03*
X2171Y853D03*
X371Y853D03*
X2071Y853D03*
X1971Y853D03*
X271Y853D03*
X171Y853D03*
X1871Y853D03*
X1771Y853D03*
X71Y853D03*
X1671Y853D03*
X1671Y3453D03*
X1671Y3353D03*
X1671Y3253D03*
X1671Y3153D03*
X1671Y3053D03*
X1671Y2953D03*
X1671Y2853D03*
X1671Y2753D03*
X1671Y2553D03*
X1671Y2453D03*
X1671Y2353D03*
X1671Y2253D03*
X1671Y2153D03*
X1671Y2053D03*
X1671Y1953D03*
X1671Y1853D03*
X1671Y1653D03*
X1671Y1553D03*
X1671Y1453D03*
X1671Y1353D03*
X1671Y1253D03*
X1671Y1153D03*
X1671Y1053D03*
X1671Y953D03*
X1671Y753D03*
X1671Y653D03*
X1671Y553D03*
X1671Y453D03*
X1671Y353D03*
X1671Y253D03*
X1671Y153D03*
X1671Y53D03*
G54D14*
X971Y653D03*
G54D15*
X571Y153D03*
X1071Y153D03*
G54D14*
X971Y1553D03*
G54D15*
X571Y1053D03*
X1071Y1053D03*
G54D14*
X971Y2453D03*
G54D15*
X571Y1953D03*
X1071Y1953D03*
G54D14*
X971Y3353D03*
G54D15*
X571Y2853D03*
X1071Y2853D03*
G54D14*
X2671Y1553D03*
X2671Y2453D03*
X2671Y653D03*
X2671Y3353D03*
G54D15*
X2271Y2853D03*
X2271Y1053D03*
X2271Y153D03*
X2271Y1953D03*
X2771Y2853D03*
X2771Y153D03*
X2771Y1053D03*
X2771Y1953D03*
G04 End of Mask1*
M02*