G04 MADE WITH FRITZING*
G04 WWW.FRITZING.ORG*
G04 DOUBLE SIDED*
G04 HOLES PLATED*
G04 CONTOUR ON CENTER OF CONTOUR VECTOR*
%ASAXBY*%
%FSLAX23Y23*%
%MOIN*%
%OFA0B0*%
%SFA1.0B1.0*%
%ADD10C,0.075000*%
%ADD11C,0.078000*%
%ADD12C,0.039370*%
%ADD13R,0.075000X0.075000*%
%ADD14R,0.078000X0.078000*%
%ADD15C,0.024000*%
%LNCOPPER0*%
G90*
G70*
G54D10*
X2971Y1453D03*
X2971Y1053D03*
X2971Y553D03*
X2971Y153D03*
X2971Y2353D03*
X2971Y1953D03*
X2971Y3253D03*
X2971Y2853D03*
X1271Y553D03*
X1271Y153D03*
X1271Y3253D03*
X1271Y2853D03*
X1271Y1453D03*
X1271Y1053D03*
X1271Y2353D03*
X1271Y1953D03*
X2071Y1953D03*
X2071Y2353D03*
X2071Y153D03*
X2071Y553D03*
X2071Y1053D03*
X2071Y1453D03*
X2071Y2853D03*
X2071Y3253D03*
X371Y1053D03*
X371Y1453D03*
X371Y153D03*
X371Y553D03*
X371Y2853D03*
X371Y3253D03*
X371Y1953D03*
X371Y2353D03*
X2671Y1553D03*
X2671Y1253D03*
X2571Y1553D03*
X2571Y1253D03*
X2471Y1553D03*
X2471Y1253D03*
X2371Y1553D03*
X2371Y1253D03*
X2671Y653D03*
X2671Y353D03*
X2571Y653D03*
X2571Y353D03*
X2471Y653D03*
X2471Y353D03*
X2371Y653D03*
X2371Y353D03*
X2671Y3353D03*
X2671Y3053D03*
X2571Y3353D03*
X2571Y3053D03*
X2471Y3353D03*
X2471Y3053D03*
X2371Y3353D03*
X2371Y3053D03*
X2671Y2453D03*
X2671Y2153D03*
X2571Y2453D03*
X2571Y2153D03*
X2471Y2453D03*
X2471Y2153D03*
X2371Y2453D03*
X2371Y2153D03*
X971Y653D03*
X971Y353D03*
X871Y653D03*
X871Y353D03*
X771Y653D03*
X771Y353D03*
X671Y653D03*
X671Y353D03*
X971Y1553D03*
X971Y1253D03*
X871Y1553D03*
X871Y1253D03*
X771Y1553D03*
X771Y1253D03*
X671Y1553D03*
X671Y1253D03*
X971Y3353D03*
X971Y3053D03*
X871Y3353D03*
X871Y3053D03*
X771Y3353D03*
X771Y3053D03*
X671Y3353D03*
X671Y3053D03*
X971Y2453D03*
X971Y2153D03*
X871Y2453D03*
X871Y2153D03*
X771Y2453D03*
X771Y2153D03*
X671Y2453D03*
X671Y2153D03*
X1871Y553D03*
X1871Y253D03*
X1871Y2353D03*
X1871Y2053D03*
X1871Y3253D03*
X1871Y2953D03*
X1871Y1453D03*
X1871Y1153D03*
X171Y553D03*
X171Y253D03*
X171Y1453D03*
X171Y1153D03*
X171Y3253D03*
X171Y2953D03*
X171Y2353D03*
X171Y2053D03*
X3171Y1453D03*
X3171Y1153D03*
X3171Y2353D03*
X3171Y2053D03*
X3171Y553D03*
X3171Y253D03*
X3171Y3253D03*
X3171Y2953D03*
X1471Y1453D03*
X1471Y1153D03*
X1471Y553D03*
X1471Y253D03*
X1471Y3253D03*
X1471Y2953D03*
X1471Y2353D03*
X1471Y2053D03*
G54D11*
X2271Y2853D03*
X2371Y2853D03*
X2271Y153D03*
X2371Y153D03*
X2271Y1953D03*
X2371Y1953D03*
X2271Y1053D03*
X2371Y1053D03*
X571Y153D03*
X671Y153D03*
X571Y1053D03*
X671Y1053D03*
X571Y2853D03*
X671Y2853D03*
X571Y1953D03*
X671Y1953D03*
X2771Y2853D03*
X2671Y2853D03*
X2771Y1053D03*
X2671Y1053D03*
X2771Y1953D03*
X2671Y1953D03*
X2771Y153D03*
X2671Y153D03*
X1071Y153D03*
X971Y153D03*
X1071Y1053D03*
X971Y1053D03*
X1071Y2853D03*
X971Y2853D03*
X1071Y1953D03*
X971Y1953D03*
G54D12*
X2830Y2939D03*
X2830Y239D03*
X2830Y2039D03*
X2830Y1139D03*
X1130Y239D03*
X1130Y1139D03*
X1130Y2939D03*
X1130Y2039D03*
G54D13*
X2671Y1553D03*
X2671Y653D03*
X2671Y3353D03*
X2671Y2453D03*
X971Y653D03*
X971Y1553D03*
X971Y3353D03*
X971Y2453D03*
G54D14*
X2271Y2853D03*
X2271Y153D03*
X2271Y1953D03*
X2271Y1053D03*
X571Y153D03*
X571Y1053D03*
X571Y2853D03*
X571Y1953D03*
X2771Y2853D03*
X2771Y1053D03*
X2771Y1953D03*
X2771Y153D03*
X1071Y153D03*
X1071Y1053D03*
X1071Y2853D03*
X1071Y1953D03*
G54D15*
X2766Y1982D02*
X2686Y2423D01*
D02*
X2766Y182D02*
X2686Y623D01*
D02*
X2766Y2882D02*
X2686Y3323D01*
D02*
X2766Y1082D02*
X2686Y1523D01*
D02*
X1066Y1082D02*
X986Y1523D01*
D02*
X1066Y182D02*
X986Y623D01*
D02*
X1066Y2882D02*
X986Y3323D01*
D02*
X1066Y1982D02*
X986Y2423D01*
D02*
X2686Y1523D02*
X2684Y1527D01*
D02*
X2686Y3323D02*
X2684Y3327D01*
D02*
X2686Y623D02*
X2684Y627D01*
D02*
X2686Y2423D02*
X2684Y2427D01*
D02*
X986Y623D02*
X984Y627D01*
D02*
X986Y1523D02*
X984Y1527D01*
D02*
X986Y3323D02*
X984Y3327D01*
D02*
X986Y2423D02*
X984Y2427D01*
D02*
X2655Y376D02*
X2614Y431D01*
D02*
X2655Y3076D02*
X2614Y3131D01*
D02*
X2655Y1276D02*
X2614Y1331D01*
D02*
X2655Y2176D02*
X2614Y2231D01*
D02*
X955Y376D02*
X914Y431D01*
D02*
X955Y1276D02*
X914Y1331D01*
D02*
X955Y3076D02*
X914Y3131D01*
D02*
X955Y2176D02*
X914Y2231D01*
D02*
X2614Y1331D02*
X2518Y1331D01*
D02*
X2614Y431D02*
X2518Y431D01*
D02*
X2614Y2231D02*
X2518Y2231D01*
D02*
X2614Y3131D02*
X2518Y3131D01*
D02*
X914Y1331D02*
X818Y1331D01*
D02*
X914Y431D02*
X818Y431D01*
D02*
X914Y3131D02*
X818Y3131D01*
D02*
X914Y2231D02*
X818Y2231D01*
D02*
X2518Y431D02*
X2486Y377D01*
D02*
X2518Y2231D02*
X2486Y2177D01*
D02*
X2518Y1331D02*
X2486Y1277D01*
D02*
X2518Y3131D02*
X2486Y3077D01*
D02*
X818Y431D02*
X786Y377D01*
D02*
X818Y1331D02*
X786Y1277D01*
D02*
X818Y3131D02*
X786Y3077D01*
D02*
X818Y2231D02*
X786Y2177D01*
D02*
X2374Y1524D02*
X2374Y1523D01*
D02*
X2374Y2424D02*
X2374Y2423D01*
D02*
X2374Y624D02*
X2374Y623D01*
D02*
X2374Y3324D02*
X2374Y3323D01*
D02*
X674Y624D02*
X674Y623D01*
D02*
X674Y1524D02*
X674Y1523D01*
D02*
X674Y3324D02*
X674Y3323D01*
D02*
X674Y2424D02*
X674Y2423D01*
D02*
X2374Y3323D02*
X2099Y3259D01*
D02*
X2374Y623D02*
X2099Y559D01*
D02*
X2374Y2423D02*
X2099Y2359D01*
D02*
X2374Y1523D02*
X2099Y1459D01*
D02*
X674Y1523D02*
X399Y1459D01*
D02*
X674Y623D02*
X399Y559D01*
D02*
X674Y3323D02*
X399Y3259D01*
D02*
X674Y2423D02*
X399Y2359D01*
D02*
X2269Y183D02*
X2254Y383D01*
D02*
X2269Y2883D02*
X2254Y3083D01*
D02*
X2269Y1083D02*
X2254Y1283D01*
D02*
X2269Y1983D02*
X2254Y2183D01*
D02*
X569Y183D02*
X554Y383D01*
D02*
X569Y1083D02*
X554Y1283D01*
D02*
X569Y2883D02*
X554Y3083D01*
D02*
X569Y1983D02*
X554Y2183D01*
D02*
X2254Y3083D02*
X2092Y3233D01*
D02*
X2254Y2183D02*
X2092Y2333D01*
D02*
X2254Y383D02*
X2092Y533D01*
D02*
X2254Y1283D02*
X2092Y1433D01*
D02*
X554Y383D02*
X392Y533D01*
D02*
X554Y1283D02*
X392Y1433D01*
D02*
X554Y3083D02*
X392Y3233D01*
D02*
X554Y2183D02*
X392Y2333D01*
D02*
X2644Y165D02*
X2302Y311D01*
D02*
X2644Y2865D02*
X2302Y3011D01*
D02*
X2644Y1065D02*
X2302Y1211D01*
D02*
X2644Y1965D02*
X2302Y2111D01*
D02*
X944Y1065D02*
X602Y1211D01*
D02*
X944Y165D02*
X602Y311D01*
D02*
X944Y2865D02*
X602Y3011D01*
D02*
X944Y1965D02*
X602Y2111D01*
D02*
X2302Y3011D02*
X2302Y3203D01*
D02*
X2302Y311D02*
X2302Y503D01*
D02*
X2302Y2111D02*
X2302Y2303D01*
D02*
X2302Y1211D02*
X2302Y1403D01*
D02*
X602Y3011D02*
X602Y3203D01*
D02*
X602Y1211D02*
X602Y1403D01*
D02*
X602Y311D02*
X602Y503D01*
D02*
X602Y2111D02*
X602Y2303D01*
D02*
X2302Y2303D02*
X2450Y2434D01*
D02*
X2302Y1403D02*
X2450Y1534D01*
D02*
X2302Y3203D02*
X2450Y3334D01*
D02*
X2302Y503D02*
X2450Y634D01*
D02*
X602Y503D02*
X750Y634D01*
D02*
X602Y1403D02*
X750Y1534D01*
D02*
X602Y2303D02*
X750Y2434D01*
D02*
X602Y3203D02*
X750Y3334D01*
D02*
X2947Y2868D02*
X2846Y2929D01*
D02*
X2947Y168D02*
X2846Y229D01*
D02*
X2947Y1068D02*
X2846Y1129D01*
D02*
X2947Y1968D02*
X2846Y2029D01*
D02*
X1247Y168D02*
X1146Y229D01*
D02*
X1247Y1068D02*
X1146Y1129D01*
D02*
X1247Y2868D02*
X1146Y2929D01*
D02*
X1247Y1968D02*
X1146Y2029D01*
D02*
X3143Y553D02*
X3000Y553D01*
D02*
X3143Y3253D02*
X3000Y3253D01*
D02*
X3143Y1453D02*
X3000Y1453D01*
D02*
X3143Y2353D02*
X3000Y2353D01*
D02*
X1443Y1453D02*
X1300Y1453D01*
D02*
X1443Y553D02*
X1300Y553D01*
D02*
X1443Y2353D02*
X1300Y2353D01*
D02*
X1443Y3253D02*
X1300Y3253D01*
D02*
X2372Y1923D02*
X2374Y1871D01*
D02*
X2372Y1023D02*
X2374Y971D01*
D02*
X2372Y2823D02*
X2374Y2771D01*
D02*
X2372Y123D02*
X2374Y71D01*
D02*
X672Y123D02*
X674Y71D01*
D02*
X672Y1023D02*
X674Y971D01*
D02*
X672Y1923D02*
X674Y1871D01*
D02*
X672Y2823D02*
X674Y2771D01*
D02*
X2374Y71D02*
X2206Y71D01*
D02*
X2374Y971D02*
X2206Y971D01*
D02*
X2374Y2771D02*
X2206Y2771D01*
D02*
X2374Y1871D02*
X2206Y1871D01*
D02*
X674Y71D02*
X506Y71D01*
D02*
X674Y971D02*
X506Y971D01*
D02*
X674Y2771D02*
X506Y2771D01*
D02*
X674Y1871D02*
X506Y1871D01*
D02*
X2206Y71D02*
X2206Y311D01*
D02*
X2206Y971D02*
X2206Y1211D01*
D02*
X2206Y1871D02*
X2206Y2111D01*
D02*
X2206Y2771D02*
X2206Y3011D01*
D02*
X506Y1871D02*
X506Y2111D01*
D02*
X506Y971D02*
X506Y1211D01*
D02*
X506Y71D02*
X506Y311D01*
D02*
X506Y2771D02*
X506Y3011D01*
D02*
X2206Y311D02*
X2014Y503D01*
D02*
X2206Y2111D02*
X2014Y2303D01*
D02*
X2206Y3011D02*
X2014Y3203D01*
D02*
X2206Y1211D02*
X2014Y1403D01*
D02*
X506Y311D02*
X314Y503D01*
D02*
X506Y1211D02*
X314Y1403D01*
D02*
X506Y2111D02*
X314Y2303D01*
D02*
X506Y3011D02*
X314Y3203D01*
D02*
X2014Y3203D02*
X2014Y3323D01*
D02*
X2014Y503D02*
X2014Y623D01*
D02*
X2014Y2303D02*
X2014Y2423D01*
D02*
X2014Y1403D02*
X2014Y1523D01*
D02*
X314Y503D02*
X314Y623D01*
D02*
X314Y1403D02*
X314Y1523D01*
D02*
X314Y3203D02*
X314Y3323D01*
D02*
X314Y2303D02*
X314Y2423D01*
D02*
X2014Y3323D02*
X2326Y3419D01*
D02*
X2014Y2423D02*
X2326Y2519D01*
D02*
X2014Y1523D02*
X2326Y1619D01*
D02*
X2014Y623D02*
X2326Y719D01*
D02*
X314Y2423D02*
X626Y2519D01*
D02*
X314Y1523D02*
X626Y1619D01*
D02*
X314Y623D02*
X626Y719D01*
D02*
X314Y3323D02*
X626Y3419D01*
D02*
X2326Y2519D02*
X2566Y2519D01*
D02*
X2326Y1619D02*
X2566Y1619D01*
D02*
X2326Y719D02*
X2566Y719D01*
D02*
X2326Y3419D02*
X2566Y3419D01*
D02*
X626Y719D02*
X866Y719D01*
D02*
X626Y3419D02*
X866Y3419D01*
D02*
X626Y1619D02*
X866Y1619D01*
D02*
X626Y2519D02*
X866Y2519D01*
D02*
X2566Y719D02*
X2569Y681D01*
D02*
X2566Y3419D02*
X2569Y3381D01*
D02*
X2566Y1619D02*
X2569Y1581D01*
D02*
X866Y3419D02*
X869Y3381D01*
D02*
X2566Y2519D02*
X2569Y2481D01*
D02*
X866Y719D02*
X869Y681D01*
D02*
X866Y2519D02*
X869Y2481D01*
D02*
X866Y1619D02*
X869Y1581D01*
G04 End of Copper0*
M02*