; NON-PLATED HOLES START AT T1
; THROUGH (PLATED) HOLES START AT T100
M48
INCH
T1C0.086614
T100C0.038000
T101C0.035000
T102C0.015748
%
T1
X016714Y018527
X016714Y019527
X016714Y005527
X026714Y026527
X000714Y008527
X025714Y026527
X015714Y017527
X019714Y026527
X016714Y003527
X025714Y008527
X018714Y017527
X016714Y000527
X016714Y004527
X027714Y008527
X001714Y008527
X016714Y025527
X001714Y017527
X029714Y017527
X017714Y017527
X021714Y017527
X012714Y017527
X006714Y017527
X016714Y006527
X028714Y017527
X016714Y011527
X004714Y017527
X030714Y026527
X000714Y017527
X027714Y026527
X024714Y008527
X002714Y026527
X018714Y008527
X020714Y017527
X011714Y026527
X024714Y026527
X023714Y008527
X016714Y017527
X016714Y023527
X010714Y017527
X023714Y017527
X031714Y008527
X013714Y026527
X003714Y008527
X016714Y028527
X016714Y020527
X010714Y008527
X016714Y024527
X016714Y021527
X022714Y026527
X021714Y008527
X016714Y002527
X014714Y026527
X006714Y008527
X016714Y031527
X016714Y007527
X016714Y015527
X016714Y029527
X007714Y008527
X005714Y017527
X016714Y030527
X016714Y022527
X004714Y008527
X032714Y026527
X010714Y026527
X028714Y008527
X024714Y017527
X000714Y026527
X027714Y017527
X014714Y008527
X008714Y017527
X016714Y016527
X007714Y026527
X012714Y008527
X017714Y026527
X002714Y008527
X015714Y008527
X016714Y026527
X019714Y008527
X009714Y008527
X015714Y026527
X029714Y026527
X023714Y026527
X016714Y014527
X020714Y026527
X002714Y017527
X032714Y017527
X008714Y026527
X014714Y017527
X005714Y026527
X019714Y017527
X022714Y017527
X006714Y026527
X013714Y008527
X017714Y008527
X016714Y012527
X007714Y017527
X016714Y027527
X022714Y008527
X031714Y026527
X003714Y017527
X026714Y008527
X011714Y008527
X020714Y008527
X016714Y009527
X016714Y034527
X025714Y017527
X026714Y017527
X016714Y008527
X004714Y026527
X005714Y008527
X001714Y026527
X003714Y026527
X012714Y026527
X028714Y026527
X018714Y026527
X013714Y017527
X009714Y026527
X011714Y017527
X030714Y017527
X031714Y017527
X021714Y026527
X009714Y017527
X016714Y001527
X030714Y008527
X016714Y032527
X016714Y013527
X016714Y033527
X029714Y008527
X008714Y008527
X032714Y008527
X016714Y010527
T100
X023714Y028527
X026714Y010527
X022714Y028527
X005714Y028527
X005714Y019527
X010714Y001527
X022714Y010527
X010714Y028527
X022714Y019527
X027714Y028527
X006714Y028527
X023714Y019527
X026714Y028527
X006714Y019527
X006714Y010527
X023714Y001527
X009714Y019527
X026714Y019527
X023714Y010527
X005714Y010527
X009714Y001527
X026714Y001527
X022714Y001527
X010714Y019527
X027714Y001527
X009714Y028527
X005714Y001527
X009714Y010527
X006714Y001527
X027714Y010527
X027714Y019527
X010714Y010527
T101
X009714Y015527
X031714Y002527
X007714Y012527
X006714Y006527
X031714Y023527
X023714Y021527
X008714Y030527
X012714Y028527
X012714Y023527
X018714Y005527
X020714Y010527
X008714Y015527
X003714Y019527
X007714Y021527
X006714Y021527
X024714Y024527
X025714Y012527
X023714Y012527
X012714Y010527
X023714Y024527
X023714Y030527
X020714Y001527
X014714Y014527
X008714Y003527
X003714Y005527
X020714Y023527
X031714Y032527
X007714Y003527
X031714Y029527
X003714Y001527
X012714Y001527
X031714Y011527
X008714Y033527
X007714Y015527
X024714Y021527
X008714Y012527
X026714Y024527
X018714Y011527
X018714Y002527
X026714Y030527
X014714Y005527
X018714Y029527
X003714Y028527
X006714Y012527
X024714Y030527
X029714Y028527
X006714Y015527
X014714Y023527
X024714Y003527
X031714Y005527
X020714Y028527
X023714Y033527
X007714Y024527
X001714Y020527
X018714Y014527
X006714Y003527
X006714Y033527
X025714Y015527
X009714Y024527
X026714Y003527
X025714Y021527
X001714Y005527
X009714Y021527
X003714Y014527
X003714Y010527
X001714Y023527
X001714Y014527
X029714Y023527
X024714Y015527
X001714Y029527
X008714Y021527
X025714Y030527
X012714Y014527
X026714Y012527
X029714Y001527
X012714Y032527
X031714Y020527
X026714Y015527
X012714Y019527
X026714Y033527
X024714Y006527
X025714Y003527
X023714Y003527
X009714Y006527
X014714Y020527
X018714Y023527
X025714Y006527
X025714Y024527
X020714Y032527
X007714Y030527
X001714Y002527
X029714Y010527
X009714Y033527
X020714Y014527
X006714Y030527
X003714Y023527
X024714Y012527
X012714Y005527
X031714Y014527
X023714Y015527
X008714Y006527
X008714Y024527
X006714Y024527
X026714Y021527
X029714Y005527
X001714Y032527
X018714Y032527
X023714Y006527
X025714Y033527
X029714Y019527
X014714Y002527
X020714Y005527
X018714Y020527
X009714Y003527
X003714Y032527
X014714Y011527
X029714Y032527
X014714Y029527
X009714Y030527
X007714Y006527
X029714Y014527
X014714Y032527
X001714Y011527
X024714Y033527
X026714Y006527
X020714Y019527
X007714Y033527
X009714Y012527
T102
X028297Y011393
X028297Y029393
X011297Y020393
X011297Y011393
X011297Y002393
X028297Y020393
X028297Y002393
X011297Y029393
T00
M30
